<svg width="38" height="44" viewBox="0 0 38 44" fill="none" xmlns="http://www.w3.org/2000/svg">
<path fill-rule="evenodd" clip-rule="evenodd" d="M14.0901 2.87813C11.4981 4.23083 9.36779 5.37293 9.37589 5.42153C9.37589 5.54303 15.6048 8.69393 15.8235 8.68583C15.9207 8.68583 16.6497 8.34563 17.4435 7.94063L18.8853 7.20353L20.4567 8.01353L22.0281 8.82353L24.6039 7.66523C28.4757 5.92373 28.8807 5.72933 28.8159 5.67263C28.7349 5.58353 27.3417 4.83833 23.5671 2.85383C21.7446 1.89803 19.9788 0.950327 19.6386 0.764027C19.2984 0.569627 18.9744 0.423828 18.9177 0.423828C18.861 0.423828 16.6821 1.52543 14.0901 2.87813ZM2.70959 8.77493L0.00419424 10.1681V16.2917C0.00419424 19.6613 0.0365942 22.4153 0.0851943 22.4153C0.125694 22.4153 1.45409 21.8402 3.04169 21.1355L5.91719 19.8557V13.4L7.31849 14.1614C8.40389 14.7527 9.48119 15.3359 10.5666 15.9272L12.4134 16.9235L13.2315 16.5509C13.7499 16.316 14.2602 16.0811 14.7705 15.8462C15.1674 15.6599 16.1394 15.2225 16.9332 14.8742C17.727 14.5259 18.456 14.1695 18.5613 14.0885C18.699 13.9832 17.0142 13.0517 12.3324 10.646C8.80079 8.83163 5.79569 7.35743 5.65799 7.36553C5.52029 7.37363 4.19189 8.00543 2.70959 8.77493ZM29.2938 9.16373C27.4551 9.99803 25.9485 10.7108 25.9485 10.7513C25.9485 10.7918 26.9529 11.3912 28.176 12.0797C29.4072 12.7682 30.4035 13.3676 30.4035 13.4162C30.4035 13.4648 29.3181 13.9913 27.9897 14.5826C26.6613 15.182 23.3079 16.6967 20.5296 17.9522L11.2389 22.1561C8.89799 23.2091 6.79199 24.1649 6.55709 24.2702C1.78619 26.4329 0.465894 27.0323 0.287694 27.1376C0.109494 27.2429 0.0689938 27.8423 0.0365938 30.8636L-0.00390625 34.4681L2.40989 35.6993L4.82369 36.9305L8.17709 35.4158C10.0158 34.5815 11.5305 33.8606 11.5305 33.8039C11.5305 33.7472 11.1903 33.5285 10.7772 33.3098C10.3641 33.0911 9.5055 32.6051 8.86559 32.2325C8.23379 31.8599 7.602 31.5197 7.4643 31.4711C7.3266 31.4225 7.21319 31.3496 7.21319 31.2929C7.21319 31.2443 8.6874 30.5396 10.4937 29.7377C13.9929 28.1744 16.6659 26.9675 22.4088 24.3674C24.9765 23.2091 27.5442 22.0427 30.12 20.8844C32.3799 19.8638 35.0043 18.6731 35.952 18.2357L37.6773 17.4419L37.7178 13.7969L37.7583 10.1519L35.3121 8.90453C33.9675 8.21603 32.8092 7.64903 32.7525 7.64903C32.6877 7.64903 31.1325 8.33753 29.2938 9.16373ZM37.0293 22.3181C36.6648 22.4963 35.952 22.8284 35.4417 23.0552C34.9314 23.282 33.9594 23.7194 33.2871 24.0272L32.064 24.5861L32.0397 27.7856C32.0235 29.5433 31.9587 30.977 31.8939 30.9689C31.7481 30.9446 29.4558 29.7701 27.1473 28.5308C25.4787 27.6398 25.3734 27.5993 24.9846 27.7937C24.7578 27.9071 23.4051 28.5146 21.9795 29.1383C20.5539 29.7701 19.3389 30.3209 19.2822 30.3776C19.2255 30.4262 22.0929 31.9814 25.665 33.8363L32.145 37.2059L34.9152 35.7722C36.438 34.9865 37.734 34.2656 37.7907 34.1765C37.9284 33.974 37.9122 21.9698 37.7826 21.986C37.7259 21.9941 37.3857 22.1399 37.0293 22.3181ZM21.6879 36.404C21.21 36.6065 20.724 36.8171 20.2461 37.0277C18.7962 37.6514 19.0797 37.6757 17.3544 36.8171C16.2042 36.242 15.7101 36.0719 15.4914 36.1529C15.3294 36.2177 13.9443 36.8414 12.4053 37.538C10.8744 38.2346 9.56219 38.8097 9.49739 38.8097C8.84939 38.8097 9.92669 39.4496 14.0577 41.5313L18.9015 43.9775L20.9427 42.9731C22.0605 42.4223 24.3285 41.3126 25.9647 40.5107C27.609 39.7088 28.9293 39.0365 28.905 39.0041C28.8807 38.9798 27.5037 38.2751 25.8432 37.4327L22.83 35.9099L21.6879 36.404Z" fill="white"/>
</svg>
