<svg width="88" height="62" viewBox="0 0 88 62" fill="none" xmlns="http://www.w3.org/2000/svg">
<path d="M49.4991 1.03904L78.1343 15.3274C79.4756 15.969 79.4756 17.8935 78.1926 18.535L41.0427 38.1306C38.9432 39.2386 36.4938 39.2386 34.3943 38.1889L11.0663 26.5249C8.20859 25.3585 5.05931 27.458 5.05931 30.6073C5.05931 33.115 6.45899 35.4478 8.73347 36.5559L32.1198 48.2782C33.5195 46.8202 35.5607 45.9454 37.7185 45.9454C39.8763 45.9454 41.8009 46.8202 43.2006 48.1616L72.3606 32.7651C72.3023 32.2986 72.244 31.832 72.244 31.3654C72.244 26.9914 75.7432 23.4922 80.1172 23.4922C84.4912 23.4922 87.9904 26.9914 87.9904 31.3654C87.9904 35.7394 84.4912 39.2386 80.1172 39.2386C78.0176 39.2386 76.0348 38.4222 74.6351 37.0225L45.4751 52.419C45.5334 52.8855 45.5917 53.2938 45.5917 53.7603C45.5917 58.1343 42.0925 61.6335 37.7185 61.6335C33.3445 61.6335 29.8453 58.1343 29.8453 53.7603C29.8453 53.3521 29.9036 52.9438 29.9619 52.5939L6.22571 40.755C2.55155 38.8887 0.21875 35.1562 0.21875 31.0155V28.741C0.21875 25.5918 1.96835 22.7341 4.70939 21.2178L42.909 1.03904C44.8919 0.0476036 47.3996 -0.0107163 49.4991 1.03904ZM37.6602 56.9096C39.3515 56.9096 40.6928 55.5683 40.6928 53.877C40.6928 52.1857 39.3515 50.8443 37.6602 50.8443C35.9689 50.8443 34.6275 52.1857 34.6275 53.877C34.6275 55.5683 35.9689 56.9096 37.6602 56.9096ZM83.0915 31.4821C83.0915 33.1734 81.7501 34.5147 80.0588 34.5147C78.3676 34.5147 77.0262 33.1734 77.0262 31.4821C77.0262 29.7908 78.3676 28.4494 80.0588 28.4494C81.6918 28.4494 83.0915 29.7908 83.0915 31.4821Z" fill="white"/>
</svg>
