<svg width="40" height="28" viewBox="0 0 40 28" fill="none" xmlns="http://www.w3.org/2000/svg">
<path d="M22.1094 0.906676L34.8362 7.25708C35.4323 7.5422 35.4323 8.39756 34.8621 8.68268L18.351 17.3918C17.4179 17.8843 16.3293 17.8843 15.3962 17.4177L5.02815 12.2337C3.75807 11.7153 2.35839 12.6484 2.35839 14.0481C2.35839 15.1627 2.98047 16.1995 3.99135 16.692L14.3853 21.9019C15.0074 21.2539 15.9146 20.8651 16.8736 20.8651C17.8326 20.8651 18.688 21.2539 19.3101 21.85L32.2701 15.0072C32.2442 14.7998 32.2182 14.5924 32.2182 14.3851C32.2182 12.4411 33.7734 10.8859 35.7174 10.8859C37.6614 10.8859 39.2166 12.4411 39.2166 14.3851C39.2166 16.3291 37.6614 17.8843 35.7174 17.8843C34.7843 17.8843 33.903 17.5214 33.281 16.8993L20.321 23.7422C20.3469 23.9496 20.3728 24.131 20.3728 24.3384C20.3728 26.2824 18.8176 27.8376 16.8736 27.8376C14.9296 27.8376 13.3744 26.2824 13.3744 24.3384C13.3744 24.1569 13.4003 23.9755 13.4262 23.82L2.87679 18.5582C1.24383 17.7288 0.207031 16.0699 0.207031 14.2296V13.2187C0.207031 11.819 0.98463 10.5489 2.20287 9.875L19.1805 0.906676C20.0618 0.466036 21.1763 0.440116 22.1094 0.906676ZM16.8477 25.738C17.5994 25.738 18.1955 25.1419 18.1955 24.3902C18.1955 23.6385 17.5994 23.0424 16.8477 23.0424C16.096 23.0424 15.4998 23.6385 15.4998 24.3902C15.4998 25.1419 16.096 25.738 16.8477 25.738ZM37.0394 14.4369C37.0394 15.1886 36.4432 15.7848 35.6915 15.7848C34.9398 15.7848 34.3437 15.1886 34.3437 14.4369C34.3437 13.6852 34.9398 13.0891 35.6915 13.0891C36.4173 13.0891 37.0394 13.6852 37.0394 14.4369Z" fill="white"/>
</svg>
