<svg width="55" height="39" viewBox="0 0 55 39" fill="none" xmlns="http://www.w3.org/2000/svg">
<path d="M30.6661 0.734315L48.3421 9.55432C49.1701 9.95032 49.1701 11.1383 48.3781 11.5343L25.4461 23.6303C24.1501 24.3143 22.6381 24.3143 21.3421 23.6663L6.94209 16.4663C5.17809 15.7463 3.23409 17.0423 3.23409 18.9863C3.23409 20.5343 4.09809 21.9743 5.50209 22.6583L19.9381 29.8943C20.8021 28.9943 22.0621 28.4543 23.3941 28.4543C24.7261 28.4543 25.9141 28.9943 26.7781 29.8223L44.7781 20.3183C44.7421 20.0303 44.7061 19.7423 44.7061 19.4543C44.7061 16.7543 46.8661 14.5943 49.5661 14.5943C52.2661 14.5943 54.4261 16.7543 54.4261 19.4543C54.4261 22.1543 52.2661 24.3143 49.5661 24.3143C48.2701 24.3143 47.0461 23.8103 46.1821 22.9463L28.1821 32.4503C28.2181 32.7383 28.2541 32.9903 28.2541 33.2783C28.2541 35.9783 26.0941 38.1383 23.3941 38.1383C20.6941 38.1383 18.5341 35.9783 18.5341 33.2783C18.5341 33.0263 18.5701 32.7743 18.6061 32.5583L3.95409 25.2503C1.68609 24.0983 0.246094 21.7943 0.246094 19.2383V17.8343C0.246094 15.8903 1.32609 14.1263 3.01809 13.1903L26.5981 0.734315C27.8221 0.122315 29.3701 0.0863152 30.6661 0.734315ZM23.3581 35.2223C24.4021 35.2223 25.2301 34.3943 25.2301 33.3503C25.2301 32.3063 24.4021 31.4783 23.3581 31.4783C22.3141 31.4783 21.4861 32.3063 21.4861 33.3503C21.4861 34.3943 22.3141 35.2223 23.3581 35.2223ZM51.4021 19.5263C51.4021 20.5703 50.5741 21.3983 49.5301 21.3983C48.4861 21.3983 47.6581 20.5703 47.6581 19.5263C47.6581 18.4823 48.4861 17.6543 49.5301 17.6543C50.5381 17.6543 51.4021 18.4823 51.4021 19.5263Z" fill="white"/>
</svg>
