<svg width="53" height="51" viewBox="0 0 53 51" fill="none" xmlns="http://www.w3.org/2000/svg">
<g clip-path="url(#clip0_2178_51)">
<path d="M18.3688 11.4331C17.8245 11.3553 17.7986 11.3294 18.0578 11.3035C18.5502 11.2257 19.6907 11.3294 20.4942 11.5108C22.3605 11.9515 24.0453 13.0919 25.8338 15.0878L26.3003 15.6321L26.9742 15.5284C29.8514 15.0619 32.8062 15.4247 35.2686 16.5652C35.9426 16.8763 37.0053 17.4983 37.1349 17.6539C37.1867 17.7057 37.2645 18.0427 37.3163 18.3796C37.4978 19.5979 37.42 20.5051 37.0312 21.2049C36.8238 21.5937 36.8238 21.6974 36.9534 22.0343C37.0571 22.2935 37.3682 22.475 37.6533 22.475C38.2754 22.475 38.9234 21.49 39.2344 20.1163L39.364 19.5719L39.5973 19.8311C40.9192 21.3086 41.956 23.3563 42.1115 24.8078L42.1634 25.1966L41.9301 24.8596C41.5413 24.2635 41.1784 23.8747 40.6859 23.5377C39.8046 22.9415 38.8715 22.7601 36.4091 22.6305C34.18 22.5009 32.9099 22.3195 31.6658 21.9047C29.5403 21.2049 28.4517 20.2977 25.9374 16.954C24.8229 15.4766 24.123 14.6731 23.4232 13.9991C21.8939 12.5217 20.3646 11.7441 18.3688 11.4331Z" fill="white"/>
<path d="M37.6726 14.7244C37.7244 13.7395 37.854 13.0915 38.1391 12.4953C38.2428 12.262 38.3465 12.0547 38.3724 12.0547C38.3983 12.0547 38.3465 12.2361 38.2687 12.4435C38.0614 13.0137 38.0355 13.8172 38.1651 14.7244C38.3465 15.8908 38.4243 16.0464 39.6684 17.3164C40.2387 17.9126 40.9126 18.6643 41.1718 18.9753L41.6124 19.5456L41.1718 19.1308C40.6275 18.6124 39.3833 17.6275 39.0982 17.4979C38.9167 17.3942 38.8908 17.3942 38.7612 17.5238C38.6575 17.6275 38.6316 17.783 38.6316 18.5347C38.6057 19.7011 38.4502 20.4268 38.0614 21.1785C37.854 21.5673 37.8281 21.4896 38.0095 21.0489C38.1391 20.712 38.1651 20.5564 38.1651 19.4419C38.1651 17.1868 37.9059 16.6425 36.3247 15.7353C35.9359 15.502 35.262 15.1651 34.8732 14.9836C34.4585 14.8022 34.1475 14.6467 34.1734 14.6467C34.2252 14.5948 35.7545 15.0355 36.3507 15.2947C37.2579 15.6576 37.4134 15.6835 37.5171 15.6576C37.5948 15.5798 37.6467 15.3724 37.6726 14.7244Z" fill="white"/>
<path d="M19.428 18.582C18.3393 17.0786 17.6395 14.7458 17.795 13.0092L17.8468 12.4648L18.106 12.5167C18.5726 12.5944 19.3761 12.9055 19.7649 13.1388C20.8017 13.7608 21.2683 14.6162 21.7089 16.7416C21.8385 17.3637 22.02 18.0895 22.0977 18.3228C22.2273 18.7116 22.7198 19.6188 23.1345 20.189C23.4196 20.6037 23.2382 20.8111 22.5902 20.7592C21.6053 20.6556 20.2833 19.7484 19.428 18.582Z" fill="white"/>
<path d="M36.3567 29.8603C31.2246 27.7867 29.4102 25.9983 29.4102 22.9656C29.4102 22.525 29.4361 22.1621 29.4361 22.1621C29.462 22.1621 29.6434 22.3176 29.8767 22.4991C30.9135 23.3285 32.0799 23.6914 35.3199 24.1579C37.2121 24.4431 38.3007 24.6504 39.2857 24.9874C42.422 26.0242 44.366 28.1496 44.8326 31.0267C44.9622 31.8562 44.8844 33.4373 44.677 34.2667C44.4956 34.9147 43.9772 36.1071 43.8476 36.133C43.8217 36.133 43.7698 36.0034 43.7698 35.796C43.718 34.7074 43.1737 33.6706 42.2665 32.8671C41.1778 31.934 39.7782 31.2341 36.3567 29.8603Z" fill="white"/>
<path d="M32.7215 30.7157C32.6697 30.3269 32.5401 29.8344 32.4623 29.6271L32.3327 29.2383L32.566 29.5234C32.903 29.9122 33.1621 30.3788 33.3954 31.0268C33.5769 31.5192 33.5769 31.6748 33.5769 32.4783C33.5769 33.2559 33.551 33.4373 33.3954 33.878C33.1362 34.5778 32.8252 35.0703 32.3068 35.6146C31.3737 36.5736 30.1554 37.092 28.4188 37.3253C28.1078 37.3512 27.2265 37.429 26.4489 37.4808C24.5049 37.5845 23.2089 37.7919 22.0425 38.2066C21.8869 38.2584 21.7314 38.3103 21.7055 38.2844C21.6537 38.2325 22.4572 37.766 23.1052 37.4549C24.0124 37.0143 24.9455 36.781 26.9932 36.4181C28.0041 36.2626 29.0409 36.0552 29.3001 35.9516C31.8661 35.148 33.1362 33.1522 32.7215 30.7157Z" fill="white"/>
<path d="M35.0789 34.8879C34.405 33.4105 34.2495 32.0108 34.6124 30.6889C34.6642 30.5593 34.7161 30.4297 34.7679 30.4297C34.8197 30.4297 34.9753 30.5074 35.1308 30.6111C35.4418 30.8185 36.0898 31.1814 37.7487 32.0886C39.8482 33.229 41.0405 34.1103 41.87 35.1212C42.5957 36.0025 43.0364 37.0134 43.2437 38.2575C43.3733 38.9574 43.2956 40.6422 43.1141 41.342C42.5439 43.5452 41.2479 45.3078 39.3557 46.3186C39.0706 46.4742 38.8373 46.5778 38.8114 46.5778C38.7855 46.5778 38.8892 46.3186 39.0447 46.0076C39.6668 44.6857 39.7445 43.4156 39.278 41.99C38.9929 41.1087 38.3967 40.046 37.2044 38.2575C35.7788 36.1839 35.4418 35.6396 35.0789 34.8879Z" fill="white"/>
<path d="M15.7709 42.8204C17.689 41.2134 20.0477 40.0729 22.225 39.71C23.1581 39.5545 24.7133 39.6063 25.5686 39.8396C26.9424 40.2025 28.1866 40.9801 28.8346 41.9391C29.4566 42.8722 29.7418 43.6758 30.0269 45.4642C30.1306 46.1641 30.2602 46.8898 30.2861 47.0454C30.4934 47.9785 30.9082 48.7042 31.4266 49.093C32.2301 49.6892 33.6298 49.7151 35.0035 49.1967C35.2368 49.119 35.4442 49.0412 35.4442 49.0671C35.496 49.119 34.7962 49.5855 34.3296 49.8188C33.6816 50.1558 33.1632 50.2594 32.4634 50.2594C31.2192 50.2594 30.1565 49.6114 29.3011 48.3154C29.1197 48.0562 28.7568 47.3046 28.4458 46.6047C27.5386 44.5052 27.072 43.8831 26.0093 43.1833C25.0762 42.5871 23.8838 42.4575 22.9766 42.8982C21.7843 43.4684 21.4733 44.9977 22.3027 45.9308C22.6397 46.3196 23.2618 46.6306 23.7802 46.7084C24.7392 46.838 25.5686 46.0863 25.5686 45.1273C25.5686 44.5052 25.3354 44.1423 24.7133 43.8572C23.8838 43.4943 22.9766 43.909 23.0026 44.7126C23.0026 45.0495 23.1581 45.2569 23.495 45.4124C23.7024 45.5161 23.7024 45.5161 23.5469 45.4902C22.7952 45.3346 22.6138 44.4015 23.2099 43.8054C23.9357 43.0796 25.465 43.3906 25.9834 44.4015C26.1907 44.8162 26.2166 45.6457 26.0352 46.1641C25.5946 47.3046 24.3504 47.9007 23.0803 47.5638C22.225 47.3305 21.8621 47.0972 20.8253 46.0345C19.0109 44.1682 18.311 43.8054 15.719 43.4166L15.2266 43.3388L15.7709 42.8204Z" fill="white"/>
<path fill-rule="evenodd" clip-rule="evenodd" d="M2.14025 1.11456C8.1796 8.44992 17.4849 19.8547 17.9514 20.4768C18.3402 20.9952 18.1847 21.4877 17.5367 21.8506C17.1738 22.0579 16.4222 22.2653 16.0593 22.2653C15.6446 22.2653 15.1521 22.0579 14.8151 21.721C14.5818 21.4877 13.571 20.0102 11.29 16.4592C9.55336 13.7376 8.07592 11.4826 8.05 11.4566C7.94632 11.4048 7.94632 11.4048 11.1086 17.0554C13.1044 20.6064 13.7524 21.8765 13.7524 22.032C13.7524 22.369 13.6487 22.5504 13.234 23.017C12.5342 23.7946 12.2231 24.6758 11.9898 26.5162C11.7306 28.5638 11.0308 30.0154 9.03496 32.4778C7.86856 33.9293 7.68713 34.1885 7.40201 34.7846C7.03912 35.5104 6.93545 35.9251 6.88361 36.8582C6.83177 37.8432 6.93544 38.4653 7.22056 39.3984C7.47976 40.2278 7.76488 40.7722 8.46472 41.8349C9.06088 42.768 9.42376 43.4678 9.42376 43.727C9.42376 43.9344 9.4756 43.9344 10.4087 43.727C12.6378 43.2086 14.4782 42.3274 15.489 41.2387C16.1111 40.5648 16.2666 40.2019 16.2666 39.2688C16.2666 38.6726 16.2407 38.543 16.0852 38.1802C15.826 37.6099 15.3335 37.1434 14.2708 36.4176C12.8711 35.4586 12.275 34.681 12.1194 33.6442C11.9898 32.7629 12.1454 32.1667 12.923 30.5338C13.7265 28.849 13.9338 28.1491 14.0634 26.4384C14.1412 25.3498 14.2708 24.9091 14.5818 24.5722C14.9188 24.2093 15.2039 24.0797 16.0074 23.976C17.3294 23.7946 18.1847 23.4576 18.8586 22.8096C19.4548 22.2653 19.714 21.721 19.7399 20.9174L19.7658 20.3213L19.4289 19.9584C18.2106 18.5587 1.33673 0 1.25897 0C1.23305 0 1.64777 0.49248 2.14025 1.11456ZM10.0977 37.9728C10.3828 37.4803 10.2273 36.8582 9.76072 36.5472C9.32008 36.2621 8.64616 36.3917 8.64616 36.7805C8.64616 36.8842 8.698 36.9878 8.85352 37.0397C9.0868 37.1693 9.11272 37.2989 8.93128 37.584C8.74985 37.8691 8.74984 38.1283 8.98312 38.3098C9.346 38.5949 9.83848 38.4394 10.0977 37.9728Z" fill="white"/>
<path fill-rule="evenodd" clip-rule="evenodd" d="M20.5971 24.3388C19.975 24.5202 19.3788 25.1941 19.1974 25.868C19.0937 26.2828 19.1455 27.0344 19.327 27.2677C19.6121 27.6306 19.8713 27.7343 20.5971 27.7343C22.0227 27.7343 23.2409 27.1122 23.3705 26.3605C23.5001 25.7384 22.9558 24.8831 22.2041 24.4943C21.8153 24.2869 21.0118 24.2092 20.5971 24.3388ZM22.2559 25.6348C22.4633 25.3237 22.3855 24.9868 21.9967 24.7535C21.2969 24.3128 20.2342 24.6757 20.2342 25.3496C20.2342 25.6866 20.7785 26.0495 21.2969 26.0495C21.6339 26.0495 22.1004 25.8421 22.2559 25.6348Z" fill="white"/>
</g>
<defs>
<clipPath id="clip0_2178_51">
<rect width="51.3" height="50.4" fill="white" transform="translate(0.886719)"/>
</clipPath>
</defs>
</svg>
